# xmcd CD database file
#
# Track frame offsets:
#	150
#	15397
#	32902
#	53175
#	71080
#	93315
#	111432
#	134395
#	155460
#	174105
#	192432
#
# Disc length: 2769 seconds
#
# Revision: 0
# Processed by: cddbd v1.5.1PL2 Copyright (c) Steve Scherf et al.
# Submitted via: CDex 1.51
#
DISCID=900acf0b
DTITLE=佐藤博 - AQUA
DYEAR=1988
DGENRE=JPop
TTITLE0=AQUA
TTITLE1=Seat For Two
TTITLE2=Love Is The Answer
TTITLE3=Transfusion
TTITLE4=Where It All Began
TTITLE5=For Your Love
TTITLE6=My Friend
TTITLE7=Picnic
TTITLE8=Can't Buy My Love
TTITLE9=I Sing For You
TTITLE10=Wave For Love
EXTD=YEAR: 1988
EXTT0=
EXTT1=
EXTT2=
EXTT3=
EXTT4=
EXTT5=
EXTT6=
EXTT7=
EXTT8=
EXTT9=
EXTT10=
PLAYORDER=
